# xmcd
#
# Track frame offsets:
#	150
#	32889
#	45678
#	64270
#	74291
#	89545
#	105404
#	116673
#	133928
#	154606
#	166789
#	181268
#	193753
#	218413
#	239970
#	263182
#
# Disc length: 3789 seconds
#
# Revision: 2
# Processed by: cddbd v1.5.2PL0 Copyright (c) Steve Scherf et al.
# Submitted via: EasyCDDAExtractor 2011.3.0.0
#
DISCID=e80ecb10
DTITLE=Various Artist - Further Beyond Nashville [CD 2)
DYEAR=2002
DGENRE=Country
TTITLE0=The Word - I'll Fly Away
TTITLE1=Bob Dylan - Went to see the Gypsy
TTITLE2=Chuck Prophet - That's How Much I Need Your Love
TTITLE3=Charley Pride - Is Anybody goin' to San Antone
TTITLE4=Rodney Crowell and Rosanne Cash - It's Such A Small World
TTITLE5=Calexico - Ballad of Cable Hogue
TTITLE6=Wanda Jackson - I Gotta Know
TTITLE7=Robert Earl Keen - Undone
TTITLE8=Los Lobos - Malaque
TTITLE9=The Waco Brothers - Harm's Way
TTITLE10=The Corb Lund Band - Roughest Neck Around
TTITLE11=Golden Smog - Looking Forward to Seeing You
TTITLE12=Lambchop - Up with People (remix)
TTITLE13=Alabama 3 - Cocaine Killed my Community
TTITLE14=Nortec Collective/Terrestre - Tepache AM
TTITLE15=Allison Moorer - Bully Jones
EXTD=(c)2002  Union Square Music\nCD 2/2\nBox upc 698458221124\nBox Katalog: M
EXTD=ANTDCD211
EXTT0=
EXTT1=
EXTT2=
EXTT3=
EXTT4=
EXTT5=
EXTT6=
EXTT7=
EXTT8=
EXTT9=
EXTT10=
EXTT11=
EXTT12=
EXTT13=
EXTT14=
EXTT15=
PLAYORDER=
